<svg version="1.1" viewBox="0.0 0.0 100.0 100.0" fill="none" stroke="none" stroke-linecap="square" stroke-miterlimit="10" xmlns:xlink="http://www.w3.org/1999/xlink" xmlns="http://www.w3.org/2000/svg"><clipPath id="p.0"><path d="m0 0l100.0 0l0 100.0l-100.0 0l0 -100.0z" clip-rule="nonzero"/></clipPath><g clip-path="url(#p.0)"><path fill="#6d9eeb" d="m0 0l100.0 0l0 100.0l-100.0 0z" fill-rule="evenodd"/><path fill="#ffd966" d="m35.27559 64.75624l0 0c-8.045092 -8.04509 -7.9745846 -21.17337 0.15748215 -29.322834q7.3622055 -7.3779526 14.724407 -14.755905q7.2834663 7.2834644 14.566933 14.566929l0 0c8.04509 8.045094 7.9745865 21.173374 -0.15748596 29.322838l0 0c-8.132065 8.14946 -21.246243 8.23407 -29.291336 0.18897247z" fill-rule="evenodd"/><path stroke="#ffe599" stroke-width="1.0" stroke-linejoin="round" stroke-linecap="butt" d="m35.27559 64.75624l0 0c-8.045092 -8.04509 -7.9745846 -21.17337 0.15748215 -29.322834q7.3622055 -7.3779526 14.724407 -14.755905q7.2834663 7.2834644 14.566933 14.566929l0 0c8.04509 8.045094 7.9745865 21.173374 -0.15748596 29.322838l0 0c-8.132065 8.14946 -21.246243 8.23407 -29.291336 0.18897247z" fill-rule="evenodd"/><path fill="#000000" fill-opacity="0.0" d="m52.721786 66.026245c5.5234756 0 12.341209 -5.5342636 12.341209 -11.057743" fill-rule="evenodd"/><path stroke="#ffe599" stroke-width="1.0" stroke-linejoin="round" stroke-linecap="butt" d="m52.721786 66.026245c5.5234756 0 12.341209 -5.5342636 12.341209 -11.057743" fill-rule="evenodd"/></g></svg>